<?xml version="1.0" standalone="no"?>
<!DOCTYPE svg PUBLIC "-//W3C//DTD SVG 20010904//EN"
 "http://www.w3.org/TR/2001/REC-SVG-20010904/DTD/svg10.dtd">
<svg version="1.0" xmlns="http://www.w3.org/2000/svg"
 width="750.000000pt" height="741.000000pt" viewBox="0 0 750.000000 741.000000"
 preserveAspectRatio="xMidYMid meet">

<g transform="translate(0.000000,741.000000) scale(0.100000,-0.100000)"
fill="#000000" stroke="none">
<path d="M3665 5558 c-133 -16 -326 -80 -435 -144 -114 -67 -205 -162 -231
-241 -9 -27 -9 -113 0 -352 6 -174 14 -343 16 -376 2 -33 7 -136 10 -230 3
-93 12 -323 20 -510 8 -187 19 -470 25 -630 5 -159 12 -335 15 -390 10 -178
35 -828 35 -894 l0 -64 -187 7 c-207 8 -268 22 -352 75 -108 70 -184 183 -222
329 -24 95 -25 344 -4 927 20 564 20 666 -4 713 -42 81 -151 159 -279 199 -69
21 -96 25 -170 21 -76 -3 -97 -9 -163 -41 -85 -43 -172 -120 -195 -176 -25
-59 -19 -132 36 -486 10 -66 21 -140 25 -165 9 -77 84 -607 110 -790 36 -242
50 -306 90 -389 96 -199 281 -341 530 -405 151 -39 487 -76 683 -76 46 0 91
-4 101 -10 16 -8 19 -31 25 -202 4 -106 12 -296 17 -423 6 -126 14 -312 18
-412 4 -101 10 -185 13 -188 6 -7 1138 -8 1145 -2 5 5 17 381 33 1017 22 890
32 1175 41 1185 6 5 111 13 237 18 509 17 794 108 980 312 99 108 143 209 171
394 33 213 121 816 147 1011 15 114 24 176 54 375 13 89 17 142 11 167 -31
136 -227 268 -396 268 -160 0 -374 -116 -429 -233 -18 -40 -17 -161 13 -1182
10 -339 -4 -457 -70 -593 -36 -73 -114 -156 -184 -195 -92 -52 -155 -64 -350
-68 l-180 -4 1 225 c1 124 7 419 13 655 28 1107 34 1560 22 1602 -15 56 -87
149 -153 198 -172 127 -431 198 -633 173z"/>
</g>
</svg>
